<?xml version="1.0" encoding="UTF-8" standalone="no"?>
<svg
   viewBox="0 0 496 512"
   version="1.1"
   id="svg826"
   sodipodi:docname="itchio.svg"
   inkscape:version="1.1 (c4e8f9e, 2021-05-24)"
   xmlns:inkscape="http://www.inkscape.org/namespaces/inkscape"
   xmlns:sodipodi="http://sodipodi.sourceforge.net/DTD/sodipodi-0.dtd"
   xmlns="http://www.w3.org/2000/svg"
   xmlns:svg="http://www.w3.org/2000/svg">
  <defs
     id="defs830" />
  <sodipodi:namedview
     id="namedview828"
     pagecolor="#ffffff"
     bordercolor="#666666"
     borderopacity="1.0"
     inkscape:pageshadow="2"
     inkscape:pageopacity="0.0"
     inkscape:pagecheckerboard="0"
     showgrid="false"
     inkscape:zoom="0.96302408"
     inkscape:cx="140.70261"
     inkscape:cy="230.00463"
     inkscape:window-width="1312"
     inkscape:window-height="787"
     inkscape:window-x="0"
     inkscape:window-y="25"
     inkscape:window-maximized="0"
     inkscape:current-layer="svg826" />
  <path
     id="circle914"
     style="stroke-width:12.2264;fill:currentColor;fill-opacity:1"
     d="M 247.68164 13.015625 A 244.52878 244.52878 0 0 0 3.1542969 257.54297 A 244.52878 244.52878 0 0 0 247.68164 502.07227 A 244.52878 244.52878 0 0 0 492.21094 257.54297 A 244.52878 244.52878 0 0 0 247.68164 13.015625 z M 247.68164 123.05273 C 288.7857 123.04662 316.36409 123.2893 356.14648 124.68555 C 368.94267 132.28306 394.16197 161.25356 394.40039 168.85352 L 394.40039 181.42773 C 394.40039 197.371 379.4973 211.38086 365.96875 211.38086 C 349.72592 211.38086 336.18945 197.91623 336.18945 181.9375 C 336.18945 197.91623 323.11758 211.38086 306.87109 211.38086 C 290.62582 211.38086 277.97461 197.91623 277.97461 181.9375 C 277.97461 197.91623 264.07657 211.38086 247.83008 211.38086 L 247.53516 211.38086 C 231.28989 211.38086 217.39062 197.91623 217.39062 181.9375 C 217.39062 197.91623 204.73868 211.38086 188.49219 211.38086 C 172.24569 211.38086 159.17578 197.91623 159.17578 181.9375 C 159.17578 197.91623 145.63858 211.38086 129.39453 211.38086 C 115.86597 211.38086 100.96484 197.36856 100.96484 181.42773 L 100.96484 168.85352 C 101.20326 161.25503 126.41849 132.28669 139.21875 124.68555 C 150.54649 123.69893 206.58005 123.05673 247.68164 123.05273 z M 217.18945 203.86914 C 218.72509 206.5724 220.63247 209.05172 222.85156 211.23047 C 229.22398 217.46351 237.79664 220.95336 246.71094 220.94336 C 247.03738 220.94336 247.35886 220.92992 247.68164 220.91992 L 247.69141 220.91992 C 248.01419 220.92962 248.33738 220.94336 248.66016 220.94336 C 257.57446 220.95314 266.14516 217.46156 272.51758 211.22852 C 274.73913 209.04977 276.64478 206.57363 278.18164 203.86914 C 279.7344 206.57608 281.65978 209.05344 283.89844 211.22852 C 290.03122 217.22314 298.43793 220.94141 307.70312 220.94141 C 316.61742 220.95119 325.18545 217.45959 331.55664 211.22656 C 333.77819 209.05025 335.46581 206.7211 337.01367 204.01172 L 337.02148 204.01758 C 338.5669 206.73307 340.71888 209.05757 342.94531 211.23633 C 349.31773 217.46692 357.88965 220.95427 366.80273 220.94727 C 367.92023 220.94727 369.08054 220.63723 370.01953 220.31445 C 371.32653 233.91392 371.87836 246.90951 372.07031 256.38867 L 372.07617 256.44336 C 372.09937 261.25691 372.12154 265.21393 372.14844 270.71094 C 371.89657 299.24378 374.97417 363.19283 359.56641 378.90625 C 335.69184 384.47295 291.76014 387.00754 247.6875 387.02344 L 247.67969 387.02344 C 203.60583 387.00754 159.67657 384.47295 135.80078 378.90625 C 120.39424 363.19406 123.47134 299.24378 123.2207 270.71094 C 123.2439 265.21271 123.26857 261.25763 123.29297 256.44531 L 123.29492 256.39062 C 123.48932 246.91391 124.0387 233.91783 125.3457 220.31836 C 126.28469 220.64114 127.44818 220.94922 128.56445 220.94922 C 137.47753 220.95656 146.0475 217.46887 152.41992 211.23828 C 154.64635 209.05953 156.79906 206.7338 158.3457 204.01953 L 158.35156 204.01562 C 159.8982 206.72501 161.58705 209.05221 163.80859 211.22852 C 170.18101 217.46278 178.74977 220.95431 187.66406 220.94531 C 196.93048 220.94531 205.33597 217.22826 211.46875 211.23242 C 213.70741 209.05733 215.63157 206.57925 217.18555 203.87109 L 217.18945 203.86914 z M 192.6875 235.55273 C 188.10018 235.55273 169.76665 235.55593 156.99219 271.43555 L 143.26562 320.66406 C 133.09567 357.28836 146.5198 358.18229 163.26758 358.21289 C 188.10192 357.28979 201.85547 339.2547 201.85547 321.2207 C 215.60165 323.47403 231.63909 324.60156 247.67773 324.60156 L 247.68555 324.60156 C 263.7242 324.60156 279.76236 323.47403 293.50977 321.2207 C 293.50977 339.2547 307.26209 357.28979 332.09766 358.21289 C 348.84421 358.18232 362.26957 357.28713 352.09961 320.66406 L 338.37695 271.43555 C 325.60032 235.55218 307.26265 235.55273 302.67773 235.55273 L 302.67969 235.5625 L 302.66406 235.5625 C 292.96238 235.58084 284.34264 235.56206 273.66406 247.21875 C 265.25717 246.33722 256.47513 245.89796 247.68555 245.91016 L 247.67969 245.91016 C 238.8901 245.89671 230.10684 246.33722 221.70117 247.21875 C 211.02259 235.56328 202.40481 235.5821 192.70312 235.5625 L 192.68555 235.5625 L 192.6875 235.55273 z M 247.68359 263.75195 L 247.68359 263.75977 C 247.68359 263.75977 273.82799 287.77308 278.52539 296.30469 L 261.41992 295.61914 L 261.41992 310.53711 C 261.41992 311.23527 254.55558 310.95069 247.68555 310.63281 L 247.67969 310.63281 C 240.80843 310.95066 233.94336 311.23524 233.94336 310.53711 L 233.94336 295.61914 L 216.83789 296.30469 C 221.53406 287.77308 247.65649 263.78297 247.67969 263.75977 L 247.67969 263.75391 L 247.68359 263.75195 z " />
</svg>
